<svg id="mySvg" width="1100" height="453" viewBox="0 0 1100 453" fill="none" xmlns="http://www.w3.org/2000/svg">
    <g>
        <path fill-rule="evenodd" clip-rule="evenodd" d="M547.172 0.191369L385 77.7934L545.607 133.806H545.401L549.217 135L553.034 133.806H553.24L710 79.1327L548.874 0.199022C548.34 -0.0611823 547.714 -0.0688353 547.172 0.191369Z" fill="black"/>
        <path fill-rule="evenodd" clip-rule="evenodd" d="M550.01 356.772L546.195 355.581L234.975 249.235L347.796 195.225L546.195 263.949L550.01 265.14L553.825 263.949L752.224 195.225L863.564 249.739L553.825 355.581L550.01 356.772ZM776.101 111.634L553.825 187.589H553.81L550.01 188.773L546.21 187.589H546.195L319.142 110L1.11654 261.88C-0.470654 262.636 -0.333301 264.934 1.32257 265.499L548.988 452.894C549.392 453.031 549.827 453.039 550.231 452.901L1098.65 273.089C1100.32 272.54 1100.48 270.233 1098.9 269.462L776.101 111.634Z" fill="black"/>
    </g>
</svg>